<svg width="76" height="76" viewBox="0 0 76 76" fill="none" xmlns="http://www.w3.org/2000/svg">
<path d="M61 38C61 50.7025 50.7025 61 38 61C25.2975 61 15 50.7025 15 38C15 25.2975 25.2975 15 38 15C50.7025 15 61 25.2975 61 38Z" fill="#29AB91"/>
<path d="M76 38C76 58.9868 58.9868 76 38 76C17.0132 76 0 58.9868 0 38C0 17.0132 17.0132 0 38 0C58.9868 0 76 17.0132 76 38Z" fill="white"/>
<path d="M70 38C70 55.6731 55.6731 70 38 70C20.3269 70 6 55.6731 6 38C6 20.3269 20.3269 6 38 6C55.6731 6 70 20.3269 70 38Z" fill="#29AB91"/>
<path d="M34.779 37.6716C38.2231 37.6716 41.0154 34.3872 41.0154 30.3358C41.0154 26.2844 40.0985 23 34.779 23C29.4593 23 28.5426 26.2844 28.5426 30.3358C28.5427 34.3872 31.3349 37.6716 34.779 37.6716Z" fill="white"/>
<path d="M46.5443 48.5763C46.429 41.5185 45.4772 39.5075 38.1939 38.2344C38.1939 38.2344 37.1685 39.4995 34.7789 39.4995C32.3893 39.4995 31.3641 38.2344 31.3641 38.2344C24.1603 39.4935 23.1505 41.4748 23.0177 48.3469C23.0069 48.9081 23.002 48.9375 23 48.8724C23.0004 48.9944 23.0009 49.2202 23.0009 49.6139C23.0009 49.6139 24.735 52.9992 34.779 52.9992C44.8231 52.9992 46.5573 49.6139 46.5573 49.6139C46.5573 49.361 46.5575 49.185 46.5577 49.0654C46.5557 49.1057 46.5517 49.0276 46.5443 48.5763Z" fill="white"/>
<path d="M43.4342 36.3616C46.2315 36.3616 48.4992 33.6941 48.4992 30.4037C48.4992 27.1131 47.7546 24.4456 43.4342 24.4456C42.7074 24.4456 42.0821 24.5213 41.5441 24.6627C42.542 26.4443 42.6788 28.6082 42.6788 30.3356C42.6788 32.2913 42.1314 34.1586 41.1232 35.7046C41.8161 36.1237 42.6014 36.3616 43.4342 36.3616Z" fill="white"/>
<path d="M52.9908 45.2186C52.8969 39.4864 52.124 37.8531 46.2086 36.8191C46.2086 36.8191 45.3759 37.8467 43.4351 37.8467C43.3549 37.8467 43.2771 37.8443 43.2005 37.841C44.4336 38.3794 45.5554 39.1291 46.3816 40.2262C47.8098 42.1228 48.1381 44.6706 48.2059 48.4135C52.1856 47.6519 53.0012 46.0614 53.0012 46.0614C53.0012 45.8542 53.0012 45.712 53.0016 45.6148C53 45.649 52.9967 45.5877 52.9908 45.2186Z" fill="white"/>
</svg>
